<?xml version="1.0" encoding="utf-8"?>
<!-- Generator: Adobe Illustrator 17.0.0, SVG Export Plug-In . SVG Version: 6.00 Build 0)  -->
<!DOCTYPE svg PUBLIC "-//W3C//DTD SVG 1.1//EN" "http://www.w3.org/Graphics/SVG/1.1/DTD/svg11.dtd">
<svg version="1.1" id="Layer_1" xmlns="http://www.w3.org/2000/svg" xmlns:xlink="http://www.w3.org/1999/xlink" x="0px" y="0px"
	 width="609.947px" height="272.66px" viewBox="0 0 609.947 272.66" enable-background="new 0 0 609.947 272.66"
	 xml:space="preserve">
  <g fill="#fff" stroke="#fff" stroke-width="15">

<path fill="#7FDFEF" stroke="#7FDFEF" d="M10.094,0H0v136.33v136.33h10.094l232.21-136.33L10.094,0z M10.192,260.794L10.21,136.33L10.192,11.866
	L221.85,136.33L10.192,260.794z"/>
<path d="M122.015,0h-10.094v136.33v136.33h10.094l232.21-136.33L122.015,0z M122.113,260.794l0.018-124.464
	l-0.018-124.464L333.771,136.33L122.113,260.794z"/>
<path d="M314.65,10.113V0h71.161v10.112h-30.524v252.435h30.524v10.112H314.65v-10.112h30.524V10.113H314.65z"/>
<path d="M609.947,0v54.869h-10.112V10.113h-89.139v252.435h30.524v10.112h-71.161v-10.112h30.524V10.113h-89.139
	V54.87h-10.112V0H609.947z"/>
</g>
</svg>
